<svg xmlns="http://www.w3.org/2000/svg" width="60.923" height="18.169" viewBox="0 0 60.923 18.169"><defs><style>.a{fill:#007083;}.b{fill:#ffcd00;}</style></defs><path class="a" d="M220.424,95.8a2.841,2.841,0,0,0-1.659-1.873,5.164,5.164,0,0,0-2.59-.233,4.518,4.518,0,0,0-2.607,1.278,4.7,4.7,0,0,0-.629.741l-.785,4.442H213.4a.449.449,0,0,1,.34.158.443.443,0,0,1,.1.362l-.446,2.517a4.416,4.416,0,0,0,.857.293,4.827,4.827,0,0,0,2.372-.054,4.463,4.463,0,0,0,2.429-1.476,6.336,6.336,0,0,0,.888-1.4,7.7,7.7,0,0,0,.6-1.979,5.633,5.633,0,0,0-.114-2.771M218.115,98.6a4.762,4.762,0,0,1-.831,2.087,2.335,2.335,0,0,1-1.12.81,1.649,1.649,0,0,1-1.078-.037,1.246,1.246,0,0,1-.66-.485,3.6,3.6,0,0,1-.2-2.285,3.949,3.949,0,0,1,1.111-2.466,2.3,2.3,0,0,1,.856-.415,1.7,1.7,0,0,1,1.063.019,1.446,1.446,0,0,1,.8.828,3.461,3.461,0,0,1,.065,1.943" transform="translate(-192.449 -90.172)"/><path class="a" d="M274.193,94.51a4.609,4.609,0,0,0-2.733-.829,6.335,6.335,0,0,0-2.949.9,4.44,4.44,0,0,0-1.841,3.276l-.992,5.614h2.488l1.082-6.118a1.841,1.841,0,0,1,.719-1.26,2.073,2.073,0,0,1,1.208-.4,1.575,1.575,0,0,1,1.085.4,1.288,1.288,0,0,1,.293,1.26l-.866,4.895a1.046,1.046,0,0,0,.181.882.982.982,0,0,0,.811.342h1.244l.993-5.614q.445-2.519-.723-3.347" transform="translate(-238.057 -90.217)"/><path class="a" d="M329.05,76.458a1,1,0,0,0-.793-.342h-1.279L324.789,88.5h2.488L329.256,77.3a.975.975,0,0,0-.206-.845" transform="translate(-288.425 -75.243)"/><path class="a" d="M349.7,95.509a.96.96,0,0,0-.788-.36h-1.28l-1.693,9.574h2.488l1.476-8.35a1.021,1.021,0,0,0-.2-.863" transform="translate(-306.446 -91.468)"/><path class="a" d="M360.99,77.34a1.028,1.028,0,0,0-.2-.864.966.966,0,0,0-.79-.36h-1.28l-.35,1.98h2.488Z" transform="translate(-317.038 -75.243)"/><path class="a" d="M376.913,94.51a4.611,4.611,0,0,0-2.733-.829,6.334,6.334,0,0,0-2.949.9,4.44,4.44,0,0,0-1.841,3.276l-.992,5.614h2.488l1.082-6.118a1.841,1.841,0,0,1,.719-1.26,2.073,2.073,0,0,1,1.208-.4,1.573,1.573,0,0,1,1.085.4,1.287,1.287,0,0,1,.293,1.26l-.865,4.895a1.047,1.047,0,0,0,.181.882.981.981,0,0,0,.811.342h1.244l.992-5.614q.445-2.519-.723-3.347" transform="translate(-325.585 -90.217)"/><path class="a" d="M438.584,94.981a3.549,3.549,0,0,0-3.076-1.3,4.692,4.692,0,0,0-3.4,1.332,6.422,6.422,0,0,0-1.738,3.6,4.872,4.872,0,0,0,.482,3.707,3.277,3.277,0,0,0,2.927,1.332,5.155,5.155,0,0,0,2.919-.828,5.022,5.022,0,0,0,1.9-2.3h-1.776a1.2,1.2,0,0,0-.691.18,1.008,1.008,0,0,0-.316.288l-.232.2a.614.614,0,0,1-.217.126,2.246,2.246,0,0,1-1.075.252,1.391,1.391,0,0,1-1.285-.576,2.215,2.215,0,0,1-.24-1.655h6.148a.7.7,0,0,0,.081-.252c0-.023.012-.071.025-.143l.044-.252a4.955,4.955,0,0,0-.482-3.707m-1.9,2.735h-3.626a2.523,2.523,0,0,1,.788-1.439,2.032,2.032,0,0,1,1.368-.5,1.424,1.424,0,0,1,1.226.5,2.069,2.069,0,0,1,.243,1.439" transform="translate(-378.276 -90.22)"/><path class="b" d="M82.892,79.551a1.682,1.682,0,0,1,.241-.639,1.445,1.445,0,0,1,.425-.426,1.732,1.732,0,0,1,.527-.23,2.373,2.373,0,0,1,.568-.068h3.621c.053,0,.107,0,.159-.006l4.393-3.915.009-.048a4.424,4.424,0,0,0-.018-1.977,2.638,2.638,0,0,0-.721-1.235,2.76,2.76,0,0,0-1.145-.631,4.77,4.77,0,0,0-1.266-.179H81.5L81,73.026h7.106a1.432,1.432,0,0,1,.958.28.941.941,0,0,1,.212.929,1.354,1.354,0,0,1-.542.937,1.84,1.84,0,0,1-1.059.289H84.366a4.856,4.856,0,0,0-1.879.341,4.5,4.5,0,0,0-2.374,2.223,5.7,5.7,0,0,0-.5,1.525l-.69,3.9h6.529l.5-2.828H82.7Z" transform="translate(-78.922 -70.198)"/><path class="b" d="M139.471,94.277h-.112l.088-.492.536-3.034.8-4.532h-3.913l-3.045,2.714-3.112,2.775-2.865,2.552,0,.022-.5,2.825h8.234l-1.033,4.275h3.279l1.033-4.275h1.777l.082-.464.419-2.365Zm-3.392,0H132l4.851-4.344Z" transform="translate(-120.184 -83.855)"/><path class="a" d="M210.684,166.809h1c.633,0,1.09.242,1.09.9a.961.961,0,0,1-.768.96v.011a.744.744,0,0,1,.585.789c0,.541-.391,1.192-1.535,1.192h-1.18Zm-.177,3.4h.5c.509,0,1.014-.149,1.008-.762-.005-.43-.375-.54-.751-.54h-.488Zm.365-1.755h.488c.392,0,.881-.176.875-.678-.006-.448-.391-.513-.757-.513h-.353Z" transform="translate(-190.506 -152.558)"/><path class="a" d="M230.494,173.535a2.757,2.757,0,0,1,.763-.143c.553,0,1.084.221,1.084.894a2.549,2.549,0,0,1-.048.441c-.1.523-.215,1.048-.285,1.545h-.467c.027-.138.06-.3.091-.469h-.01a1,1,0,0,1-.891.534.782.782,0,0,1-.875-.778c0-.8.7-1.026,1.622-1.026.107,0,.241.012.364.017a.974.974,0,0,0,.026-.182c0-.4-.257-.557-.627-.557a1.682,1.682,0,0,0-.837.237Zm1.24,1.384h-.386c-.381,0-.955.105-.955.619a.4.4,0,0,0,.451.381c.509,0,.832-.524.891-1" transform="translate(-207.532 -158.17)"/><path class="a" d="M249.382,173.889c.02-.116.054-.265.074-.431h.474l-.086.447h.011a1.047,1.047,0,0,1,.934-.513.823.823,0,0,1,.912.883,2.805,2.805,0,0,1-.064.513l-.3,1.484h-.5l.338-1.683a1.886,1.886,0,0,0,.027-.264.48.48,0,0,0-.5-.513c-.622,0-.928.7-1,1.043l-.29,1.418h-.5Z" transform="translate(-223.764 -158.17)"/><path class="a" d="M272.131,173.949a1.018,1.018,0,0,0-.489-.138,1.145,1.145,0,0,0-1.051,1.275c0,.524.257.833.74.833a1.61,1.61,0,0,0,.553-.128l-.091.48a1.863,1.863,0,0,1-.527.067,1.093,1.093,0,0,1-1.212-1.176,1.582,1.582,0,0,1,1.492-1.771,2.017,2.017,0,0,1,.708.111Z" transform="translate(-241.786 -158.17)"/><path class="a" d="M284.579,173.535a2.753,2.753,0,0,1,.762-.143c.553,0,1.084.221,1.084.894a2.594,2.594,0,0,1-.048.441c-.1.523-.215,1.048-.285,1.545h-.466c.026-.138.059-.3.091-.469H285.7a1,1,0,0,1-.891.534.782.782,0,0,1-.875-.778c0-.8.7-1.026,1.621-1.026.108,0,.242.012.366.017a1.011,1.011,0,0,0,.026-.182c0-.4-.258-.557-.627-.557a1.688,1.688,0,0,0-.838.237Zm1.24,1.384h-.386c-.381,0-.955.105-.955.619a.4.4,0,0,0,.449.381c.511,0,.833-.524.892-1" transform="translate(-253.617 -158.17)"/><path class="a" d="M314.132,176.226a3.368,3.368,0,0,1-.811.116,1.124,1.124,0,0,1-1.26-1.269,1.591,1.591,0,0,1,1.5-1.676.963.963,0,0,1,1.03,1.075,3.09,3.09,0,0,1-.048.514h-1.927a1,1,0,0,0-.016.177c0,.59.354.761.842.761a2.044,2.044,0,0,0,.773-.171Zm-.065-1.627a1.6,1.6,0,0,0,.016-.215.531.531,0,0,0-.58-.569.952.952,0,0,0-.837.784Z" transform="translate(-277.58 -158.174)"/><path class="a" d="M330.819,173.889c.022-.116.054-.265.076-.431h.472l-.086.447h.011a1.048,1.048,0,0,1,.935-.513.823.823,0,0,1,.911.883,2.729,2.729,0,0,1-.063.513l-.3,1.484h-.505l.339-1.683a1.884,1.884,0,0,0,.027-.264.48.48,0,0,0-.5-.513c-.623,0-.929.7-1,1.043l-.29,1.418h-.5Z" transform="translate(-293.157 -158.17)"/><path class="a" d="M360.479,166.824h.5l-.58,2.814h-.5Zm.67-.629h-.569l.119-.585h.567Z" transform="translate(-318.342 -151.536)"/><path class="a" d="M368.8,173.889c.021-.116.054-.265.075-.431h.473l-.086.447h.01a1.049,1.049,0,0,1,.934-.513.823.823,0,0,1,.912.883,2.77,2.77,0,0,1-.064.513l-.3,1.484h-.5l.338-1.683a1.906,1.906,0,0,0,.027-.264.48.48,0,0,0-.5-.513c-.622,0-.929.7-1,1.043l-.289,1.418h-.5Z" transform="translate(-325.516 -158.17)"/><path class="a" d="M390.017,168.966h.611l.134-.651.543-.193-.172.844h.752l-.081.42h-.757l-.253,1.207a4.383,4.383,0,0,0-.08.53c0,.2.107.3.364.3a.972.972,0,0,0,.354-.072l-.075.43a1.745,1.745,0,0,1-.494.06.6.6,0,0,1-.655-.623,4.1,4.1,0,0,1,.1-.661l.236-1.175h-.6Z" transform="translate(-343.942 -153.677)"/><path class="a" d="M404.2,176.226a3.351,3.351,0,0,1-.811.116,1.125,1.125,0,0,1-1.26-1.269,1.591,1.591,0,0,1,1.5-1.676.964.964,0,0,1,1.031,1.075,3.022,3.022,0,0,1-.049.514H402.68a.956.956,0,0,0-.017.177c0,.59.354.761.843.761a2.043,2.043,0,0,0,.773-.171Zm-.064-1.627a1.7,1.7,0,0,0,.016-.215.531.531,0,0,0-.58-.569.952.952,0,0,0-.837.784Z" transform="translate(-354.325 -158.174)"/><path class="a" d="M420.888,173.889c.022-.116.054-.265.075-.431h.472l-.086.447h.011a1.046,1.046,0,0,1,.933-.513.657.657,0,0,1,.231.05l-.113.458a.685.685,0,0,0-.215-.055c-.621,0-.927.695-1,1.043l-.285,1.385h-.5Z" transform="translate(-369.905 -158.17)"/><path class="a" d="M433.548,173.889c.021-.116.054-.265.076-.431h.472l-.086.447h.01a1.048,1.048,0,0,1,.934-.513.823.823,0,0,1,.913.883,2.732,2.732,0,0,1-.064.513l-.3,1.484H435l.338-1.683a1.843,1.843,0,0,0,.027-.264.48.48,0,0,0-.5-.513c-.623,0-.929.7-1,1.043l-.29,1.418h-.5Z" transform="translate(-380.693 -158.17)"/><path class="a" d="M456.286,176.226a3.361,3.361,0,0,1-.811.116,1.125,1.125,0,0,1-1.261-1.269,1.592,1.592,0,0,1,1.5-1.676.964.964,0,0,1,1.032,1.075,3.039,3.039,0,0,1-.049.514h-1.926a1,1,0,0,0-.016.177c0,.59.354.761.843.761a2.039,2.039,0,0,0,.772-.171Zm-.064-1.627a1.755,1.755,0,0,0,.016-.215.531.531,0,0,0-.58-.569.95.95,0,0,0-.836.784Z" transform="translate(-398.708 -158.174)"/><path class="a" d="M473.483,168.966h.612l.135-.651.542-.193-.171.844h.75l-.08.42h-.757l-.252,1.207a4.264,4.264,0,0,0-.081.53c0,.2.108.3.366.3a.965.965,0,0,0,.353-.072l-.074.43a1.743,1.743,0,0,1-.495.06.6.6,0,0,1-.654-.623,4.2,4.2,0,0,1,.1-.661l.236-1.175h-.6Z" transform="translate(-415.064 -153.677)"/></svg>